Transit (2012) 1080p MKV x264 AC3+DTS NL subs
.
[IMG]http://img256.imageshack.us/img256/9476/ts2012.jpg[/IMG]
.
Verenigde Staten
Thriller / Drama

geregisseerd door Antonio Negret
met James Caviezel, Diora Baird en James Frain

Een groepje dieven heeft net een bankoverval gepleegd en is op de vlucht geslagen. Ze komen een stadse familie tegen. Op een parkeerplaats stoppen de dieven de buit in de wagen van de familie en wanneer de familie met de wagen wegrijdt, krijgen zij de gevaarlijke criminelen achter zich aan.
. 
http://www.moviemeter.nl/film/72052
.
PLOT
.
A family on a road trip is stalked by criminals who stashed stolen money in their car. 
. 
http://www.imdb.com/title/tt1059836/
.
INFO
.
-.Source: Bluray.1080.Thughline
-.Format: x264 MKV
-.Audio: English AC3+DTS
-.Video: 1920x816
-.Subs: Dutch
-.NL Vertaling: QpQ WinchesterGirl
-.Controle: r3p0
.
Enjoy
.
Format                           : Matroska
Format version                   : Version 2
File size                        : 6.95 GiB
Duration                         : 1h 28mn
Overall bit rate                 : 11.3 Mbps
Encoded date                     : UTC 2012-01-13 22:51:50
Writing application              : mkvmerge v3.0.0 ('Hang up your Hang-Ups') built on Dec 12 2009 15:20:35
Writing library                  : libebml v0.7.9 + libmatroska v0.8.1

Video
ID                               : 1
Format                           : AVC
Format/Info                      : Advanced Video Codec
Format profile                   : High@L4.1
Format settings, CABAC           : Yes
Format settings, ReFrames        : 5 frames
Codec ID                         : V_MPEG4/ISO/AVC
Duration                         : 1h 28mn
Bit rate                         : 9 113 Kbps
Width                            : 1 920 pixels
Height                           : 816 pixels
Display aspect ratio             : 2.35:1
Frame rate                       : 23.976 fps
Color space                      : YUV
Chroma subsampling               : 4:2:0
Bit depth                        : 8 bits
Scan type                        : Progressive
Bits/(Pixel*Frame)               : 0.243
Stream size                      : 5.48 GiB (79%)
Writing library                  : x264 core 119 r2106 07efeb4
Encoding settings                : cabac=1 / ref=5 / deblock=1:0:0 / analyse=0x3:0x113 / me=umh / subme=7 / psy=1 / psy_rd=1.00:0.15 / mixed_ref=1 / me_range=16 / chroma_me=1 / trellis=1 / 8x8dct=1 / cqm=0 / deadzone=21,11 / fast_pskip=0 / chroma_qp_offset=-3 / threads=12 / sliced_threads=0 / nr=0 / decimate=1 / interlaced=0 / bluray_compat=0 / constrained_intra=0 / bframes=3 / b_pyramid=2 / b_adapt=1 / b_bias=0 / direct=1 / weightb=1 / open_gop=0 / weightp=2 / keyint=250 / keyint_min=23 / scenecut=40 / intra_refresh=0 / rc_lookahead=40 / rc=2pass / mbtree=1 / bitrate=9113 / ratetol=1.0 / qcomp=0.60 / qpmin=0 / qpmax=69 / qpstep=4 / cplxblur=20.0 / qblur=0.5 / ip_ratio=1.40 / aq=1:1.00
Language                         : English
Default                          : No
Forced                           : No

Audio #1
ID                               : 2
Format                           : DTS
Format/Info                      : Digital Theater Systems
Codec ID                         : A_DTS
Duration                         : 1h 28mn
Bit rate mode                    : Constant
Bit rate                         : 1 510 Kbps
Channel(s)                       : 6 channels
Channel positions                : Front: L C R, Side: L R, LFE
Sampling rate                    : 48.0 KHz
Bit depth                        : 24 bits
Compression mode                 : Lossy
Delay relative to video          : 11ms
Stream size                      : 954 MiB (13%)
Title                            : Engels DTS
Language                         : English
Default                          : Yes
Forced                           : No

Audio #2
ID                               : 3
Format                           : AC-3
Format/Info                      : Audio Coding 3
Mode extension                   : CM (complete main)
Codec ID                         : A_AC3
Duration                         : 1h 28mn
Bit rate mode                    : Constant
Bit rate                         : 640 Kbps
Channel(s)                       : 6 channels
Channel positions                : Front: L C R, Side: L R, LFE
Sampling rate                    : 48.0 KHz
Bit depth                        : 16 bits
Compression mode                 : Lossy
Stream size                      : 404 MiB (6%)
Title                            : Engels DD5.1
Language                         : English
Default                          : No
Forced                           : No

Text
ID                               : 4
Format                           : UTF-8
Codec ID                         : S_TEXT/UTF8
Codec ID/Info                    : UTF-8 Plain Text
Title                            : Nederlands QoQ-Team
Language                         : Dutch
Default                          : Yes
Forced                           : Yes


